<svg xmlns:xlink="http://www.w3.org/1999/xlink" width="72" height="32" viewBox="0 0 72 32" fill="none" xmlns="http://www.w3.org/2000/svg" class="logoIcon___kL9Qc"><path d="M15.6515 26.6324H10.8662C10.3654 26.6324 9.90115 26.4918 9.47353 26.2098C9.04591 25.9277 8.73809 25.5475 8.55007 25.0675L0.445312 4.72739H6.03512L12.4452 20.7006L18.2804 6.32306C18.4685 5.84303 18.7755 5.45784 19.2039 5.16499C19.6315 4.87298 20.0957 4.72656 20.5966 4.72656H24.4767L15.6523 26.6315L15.6515 26.6324Z" fill="#FFFFFF"></path><path d="M53.0837 27.0575L48.3126 26.9094L63.9181 5.72822C64.1477 5.39461 64.4655 5.1442 64.8723 4.97698C65.2791 4.81059 65.691 4.72656 66.1086 4.72656H70.8074L55.3058 26.055C55.0762 26.3886 54.7526 26.639 54.3358 26.8063C53.9182 26.9735 53.5014 27.0575 53.0837 27.0575ZM55.983 15.1266L48.0039 4.72739H54.691L59.2975 10.8022L55.9839 15.1258L55.983 15.1266ZM71.1119 27.0575L64.4688 26.9518L60.1444 20.7863L63.4389 16.3712L71.111 27.0583L71.1119 27.0575Z" fill="#FFFFFF"></path><path d="M36.3227 7.68792C38.4582 7.68792 40.4656 8.51904 41.9748 10.029C43.4847 11.539 44.3158 13.5464 44.3158 15.6812C44.3158 17.816 43.4847 19.8243 41.9748 21.3334C40.4648 22.8434 38.4574 23.6745 36.3227 23.6745C34.1879 23.6745 32.1796 22.8434 30.6705 21.3334C29.1605 19.8234 28.3293 17.816 28.3293 15.6812C28.3293 13.5464 29.1605 11.5381 30.6705 10.029C32.1804 8.51904 34.1879 7.68792 36.3227 7.68792ZM36.3227 4.57812C30.1904 4.57812 25.2188 9.54981 25.2188 15.682C25.2188 21.8143 30.1904 26.7859 36.3227 26.7859C42.4549 26.7859 47.4266 21.8143 47.4266 15.682C47.4266 9.54981 42.4557 4.57812 36.3227 4.57812Z" fill="#C74413"></path><path d="M36.323 7.27119C38.5693 7.27119 40.6807 8.14556 42.2689 9.73373C43.8571 11.3219 44.7314 13.4334 44.7314 15.6796C44.7314 17.9258 43.8571 20.0373 42.2689 21.6255C40.6807 23.2137 38.5693 24.088 36.323 24.088C34.0768 24.088 31.9653 23.2137 30.3771 21.6255C28.789 20.0373 27.9146 17.9258 27.9146 15.6796C27.9146 13.4334 28.789 11.3219 30.3771 9.73373C31.9653 8.14556 34.0768 7.27119 36.323 7.27119ZM36.323 4C29.8722 4 24.6426 9.22958 24.6426 15.6804C24.6426 22.1313 29.8722 27.3609 36.323 27.3609C42.7739 27.3609 48.0035 22.1313 48.0035 15.6804C48.0035 9.22958 42.7739 4 36.323 4Z" fill="#F85D11"></path><path d="M36.3221 23.9177C40.8709 23.9177 44.5584 20.2303 44.5584 15.6815C44.5584 11.1328 40.8709 7.44531 36.3221 7.44531C31.7734 7.44531 28.0859 11.1328 28.0859 15.6815C28.0859 20.2303 31.7734 23.9177 36.3221 23.9177Z" fill="#F85D11"></path><path d="M36.3237 20.9403C39.2294 20.9403 41.5849 18.5848 41.5849 15.6792C41.5849 12.7735 39.2294 10.418 36.3237 10.418C33.418 10.418 31.0625 12.7735 31.0625 15.6792C31.0625 18.5848 33.418 20.9403 36.3237 20.9403Z" fill="#FFFFFF"></path><path d="M35.5768 26.7829C35.5477 26.7829 35.5194 26.7821 35.4903 26.7796C33.66 26.6431 31.878 26.0508 30.3364 25.0658C29.7998 24.723 29.6426 24.01 29.9853 23.4726C30.3281 22.9352 31.0419 22.7788 31.5785 23.1215C32.799 23.9011 34.2108 24.3711 35.6608 24.4784C36.2956 24.5258 36.7723 25.0791 36.7249 25.7139C36.68 26.3195 36.1741 26.7812 35.576 26.7812L35.5768 26.7829ZM40.9212 25.6897C40.5052 25.6897 40.1026 25.4634 39.8971 25.0691C39.6026 24.5042 39.8222 23.8079 40.3879 23.5134C41.6758 22.8428 42.7906 21.8545 43.6109 20.6548C43.9702 20.129 44.6882 19.9943 45.214 20.3537C45.7398 20.7131 45.8746 21.431 45.5152 21.9568C44.4819 23.4685 43.0767 24.7139 41.4536 25.5591C41.2839 25.6473 41.1009 25.6897 40.9212 25.6897ZM27.3348 21.1673C26.9063 21.1673 26.4945 20.9277 26.2957 20.5151C25.5644 19.0009 25.1934 17.377 25.1934 15.6898C25.1934 15.5292 25.1967 15.367 25.2033 15.2065V15.1915C25.2333 14.555 25.7741 14.0634 26.4097 14.0933C27.0461 14.1233 27.5378 14.6624 27.5078 15.2988L26.3556 15.2456L27.5078 15.3013C27.502 15.4336 27.4995 15.5634 27.4995 15.6906C27.4995 17.0284 27.7932 18.3138 28.3722 19.5126C28.6492 20.0858 28.4088 20.7755 27.8356 21.0525C27.6742 21.1307 27.5028 21.1673 27.3348 21.1673ZM46.2872 17.2838C46.2689 17.2838 46.2506 17.2838 46.2323 17.2821C45.5959 17.2522 45.1042 16.7123 45.1341 16.0758V16.0683V16.06C45.14 15.9319 45.1425 15.803 45.1425 15.6748C45.1425 14.3346 44.8479 13.0459 44.2656 11.8446C43.9877 11.2714 44.2273 10.5817 44.8005 10.3038C45.3737 10.026 46.0634 10.2656 46.3413 10.8388C47.0759 12.3562 47.4486 13.9827 47.4486 15.6748C47.4486 15.8354 47.4453 15.9985 47.4386 16.159V16.184C47.4087 16.8021 46.8987 17.283 46.2864 17.283L46.2872 17.2838ZM28.0744 11.2215C27.8506 11.2215 27.6243 11.1566 27.4255 11.021C26.8997 10.6624 26.7641 9.94443 27.1226 9.41865C28.1551 7.90618 29.5577 6.6591 31.18 5.81218C31.7449 5.51768 32.4412 5.73648 32.7357 6.30137C33.0302 6.86625 32.8114 7.56259 32.2465 7.85709C30.9595 8.5293 29.8456 9.51848 29.0269 10.719C28.804 11.0459 28.4413 11.2223 28.0735 11.2223L28.0744 11.2215ZM41.6766 8.41949C41.4644 8.41949 41.2498 8.36125 41.0576 8.23812C39.8363 7.45943 38.4245 6.99188 36.9736 6.88539C36.3389 6.8388 35.8613 6.28556 35.9079 5.65079C35.9545 5.01519 36.5086 4.53932 37.1425 4.58507C38.9728 4.71985 40.7556 5.31052 42.298 6.29388C42.8355 6.63664 42.9927 7.34961 42.6508 7.88621C42.4312 8.23147 42.0576 8.41949 41.6766 8.41949Z" fill="#FFFFFF"></path></svg>